<svg width="1600" height="260" viewBox="0 0 1600 260" fill="none" xmlns="http://www.w3.org/2000/svg" role="img" aria-labelledby="title desc">
  <title id="title">Hồng HSK4 Studio study flow</title>
  <desc id="desc">A lightweight animated flow from import to review, stroke practice, mock exam and Cloudflare deployment.</desc>
  <defs>
    <linearGradient id="bg" x1="0" y1="0" x2="1600" y2="260" gradientUnits="userSpaceOnUse">
      <stop stop-color="#FFF7F0"/>
      <stop offset="0.52" stop-color="#FFF0F1"/>
      <stop offset="1" stop-color="#F9F6EF"/>
    </linearGradient>
    <linearGradient id="line" x1="155" y1="130" x2="1445" y2="130" gradientUnits="userSpaceOnUse">
      <stop stop-color="#9F2734"/>
      <stop offset="0.45" stop-color="#D95D67"/>
      <stop offset="1" stop-color="#A76507"/>
    </linearGradient>
    <filter id="shadow" x="-20%" y="-30%" width="140%" height="170%">
      <feDropShadow dx="0" dy="16" stdDeviation="18" flood-color="#582B27" flood-opacity="0.13"/>
    </filter>
  </defs>
  <rect width="1600" height="260" rx="34" fill="url(#bg)"/>
  <path d="M80 218 C280 140 330 230 520 160 C690 98 760 210 950 130 C1120 58 1210 150 1520 66" stroke="#DDE8E2" stroke-width="2"/>
  <path d="M155 130H1445" stroke="url(#line)" stroke-width="10" stroke-linecap="round" opacity="0.28"/>
  <g>
    <circle cx="155" cy="130" r="13" fill="#9F2734">
      <animate attributeName="cx" values="155;480;800;1120;1445;155" dur="7s" repeatCount="indefinite"/>
      <animate attributeName="fill" values="#9F2734;#D95D67;#9F2734;#1F2230;#A76507;#9F2734" dur="7s" repeatCount="indefinite"/>
    </circle>
    <circle cx="155" cy="130" r="24" stroke="#9F2734" stroke-width="3" opacity="0.25">
      <animate attributeName="cx" values="155;480;800;1120;1445;155" dur="7s" repeatCount="indefinite"/>
      <animate attributeName="r" values="18;28;18" dur="1.4s" repeatCount="indefinite"/>
      <animate attributeName="opacity" values="0.38;0.08;0.38" dur="1.4s" repeatCount="indefinite"/>
    </circle>
  </g>
  <g filter="url(#shadow)" font-family="Inter, ui-sans-serif, system-ui, -apple-system, BlinkMacSystemFont, Segoe UI, sans-serif">
    <g transform="translate(70 54)">
      <rect width="230" height="152" rx="24" fill="#FFFFFF"/>
      <rect x="24" y="24" width="54" height="54" rx="15" fill="#F8E9EA"/>
      <text x="51" y="63" text-anchor="middle" font-size="36" font-weight="800" fill="#9F2734">入</text>
      <text x="98" y="52" font-size="24" font-weight="800" fill="#1F3154">Nhập dữ liệu</text>
      <text x="98" y="84" font-size="17" fill="#5D6B7A">Excel / CSV</text>
      <text x="24" y="126" font-size="16" fill="#9F2734">4A/4B theo bài</text>
    </g>
    <g transform="translate(395 54)">
      <rect width="230" height="152" rx="24" fill="#FFFFFF"/>
      <rect x="24" y="24" width="54" height="54" rx="15" fill="#FFF0F1"/>
      <text x="51" y="63" text-anchor="middle" font-size="36" font-weight="800" fill="#9F2734">复</text>
      <text x="98" y="52" font-size="24" font-weight="800" fill="#1F3154">Ôn hôm nay</text>
      <text x="98" y="84" font-size="17" fill="#5D6B7A">SRS + từ sai</text>
      <text x="24" y="126" font-size="16" fill="#9F2734">Gõ chữ Hán</text>
    </g>
    <g transform="translate(715 54)">
      <rect width="230" height="152" rx="24" fill="#FFFFFF"/>
      <rect x="24" y="24" width="54" height="54" rx="15" fill="#FFF0F1"/>
      <text x="51" y="63" text-anchor="middle" font-size="36" font-weight="800" fill="#7F1D2A">笔</text>
      <text x="98" y="52" font-size="24" font-weight="800" fill="#1F3154">Luyện nét</text>
      <text x="98" y="84" font-size="17" fill="#5D6B7A">Hanzi Writer</text>
      <text x="24" y="126" font-size="16" fill="#9F2734">Ẩn đáp án khi học</text>
    </g>
    <g transform="translate(1035 54)">
      <rect width="230" height="152" rx="24" fill="#FFFFFF"/>
      <rect x="24" y="24" width="54" height="54" rx="15" fill="#FFF0F1"/>
      <text x="51" y="63" text-anchor="middle" font-size="36" font-weight="800" fill="#9F2734">考</text>
      <text x="98" y="52" font-size="24" font-weight="800" fill="#1F3154">Thi thử</text>
      <text x="98" y="84" font-size="17" fill="#5D6B7A">100 câu / 105 phút</text>
      <text x="24" y="126" font-size="16" fill="#9F2734">Nghe · Đọc · Viết</text>
    </g>
    <g transform="translate(1355 54)">
      <rect width="175" height="152" rx="24" fill="#FFFFFF"/>
      <rect x="24" y="24" width="54" height="54" rx="15" fill="#FFF6DB"/>
      <text x="51" y="63" text-anchor="middle" font-size="34" font-weight="800" fill="#D7A950">云</text>
      <text x="94" y="52" font-size="23" font-weight="800" fill="#1F3154">Deploy</text>
      <text x="94" y="84" font-size="16" fill="#5D6B7A">Pages</text>
      <text x="24" y="126" font-size="16" fill="#9F2734">PWA public</text>
    </g>
  </g>
</svg>
